<svg xmlns="http://www.w3.org/2000/svg" xmlns:xlink="http://www.w3.org/1999/xlink" width="2000" zoomAndPan="magnify" viewBox="0 0 1500 1499.999933" height="2000" preserveAspectRatio="xMidYMid meet" version="1.0"><defs><clipPath id="cc724d746f"><rect x="0" width="1500" y="0" height="1500"/></clipPath></defs><g transform="matrix(1, 0, 0, 1, 0, 0.000000000000112861)"><g clip-path="url(#cc724d746f)"><path fill="#ffefd6" d="M 1500 750 C 1500 335.851562 1164.148438 0 750 0 C 335.851562 0 0 335.851562 0 750 C 0 1164.148438 335.851562 1500 750 1500 C 1164.148438 1500 1500 1164.148438 1500 750 Z M 1500 750 " fill-opacity="1" fill-rule="nonzero"/><path fill="#e2a379" d="M 355.5 1124.242188 C 367.894531 1123.640625 416.867188 1124.546875 421.402344 1125.152344 C 432.285156 1126.664062 443.773438 1122.429688 443.46875 1112.152344 C 443.167969 1104.292969 440.75 1096.734375 441.957031 1091.898438 C 448.609375 1067.414062 471.28125 983.976562 478.839844 954.351562 C 481.257812 944.378906 419.890625 931.984375 418.984375 942.867188 C 414.449219 986.394531 411.425781 1078.597656 411.730469 1094.316406 C 411.730469 1094.316406 347.039062 1097.039062 346.433594 1108.523438 C 345.828125 1114.871094 343.109375 1124.847656 355.5 1124.242188 Z M 355.5 1124.242188 " fill-opacity="1" fill-rule="nonzero"/><path fill="#333333" d="M 496.371094 891.777344 C 492.441406 908.707031 491.839844 921.101562 478.839844 954.050781 C 469.46875 949.515625 428.054688 940.449219 418.984375 942.5625 C 421.101562 925.03125 429.867188 842.804688 452.839844 819.226562 C 476.722656 794.4375 696.191406 852.175781 701.332031 844.316406 C 701.332031 844.316406 811.367188 918.683594 765.71875 949.515625 C 709.191406 987 496.371094 891.777344 496.371094 891.777344 Z M 496.371094 891.777344 " fill-opacity="1" fill-rule="nonzero"/><path fill="#f4b382" d="M 1256.953125 1116.6875 C 1255.742188 1104.292969 1203.144531 1101.269531 1194.980469 1096.128906 C 1191.050781 1093.710938 1187.726562 1086.457031 1177.449219 1084.644531 C 1163.84375 1082.226562 1154.472656 1091.898438 1149.636719 1090.6875 C 1125.152344 1084.945312 1057.132812 1076.785156 1027.207031 1070.132812 C 1020.253906 1068.621094 1013.300781 1067.109375 1006.046875 1065.902344 C 976.421875 1060.761719 984.886719 1124.246094 995.769531 1125.152344 C 1039.296875 1128.175781 1143.894531 1122.128906 1159.613281 1121.523438 C 1159.613281 1121.523438 1207.375 1127.570312 1218.863281 1127.871094 C 1225.816406 1128.175781 1258.160156 1129.082031 1256.953125 1116.6875 Z M 1256.953125 1116.6875 " fill-opacity="1" fill-rule="nonzero"/><path fill="#3d3c3c" d="M 909.914062 1058.34375 C 944.980469 1058.644531 977.933594 1061.367188 1007.558594 1066.503906 C 1002.417969 1075.875 995.769531 1116.082031 997.28125 1125.453125 C 986.398438 1124.847656 902.054688 1123.941406 902.054688 1123.941406 C 878.476562 1123.640625 734.28125 982.769531 675.332031 912.332031 C 670.796875 907.195312 663.242188 894.195312 655.984375 880.289062 C 655.984375 880.289062 750 823.15625 760.582031 825.273438 C 778.113281 834.339844 795.34375 852.175781 802.296875 874.847656 C 806.226562 887.242188 805.320312 909.613281 809.550781 915.960938 C 848.851562 971.886719 909.914062 1058.34375 909.914062 1058.34375 Z M 909.914062 1058.34375 " fill-opacity="1" fill-rule="nonzero"/><path fill="#e2a379" d="M 741.234375 205.5625 C 752.71875 205.5625 746.675781 253.324219 749.699219 267.835938 L 741.839844 285.066406 C 748.789062 389.964844 730.046875 435.609375 730.046875 435.609375 C 737 498.1875 744.558594 618.804688 740.328125 642.382812 C 736.398438 665.960938 688.027344 663.242188 686.214844 639.058594 C 684.402344 615.175781 685.308594 593.710938 685.609375 569.832031 C 685.609375 545.949219 689.238281 456.769531 691.355469 435.914062 C 691.65625 433.191406 716.144531 285.066406 716.144531 285.066406 C 716.144531 285.066406 715.839844 279.019531 712.515625 269.042969 C 707.679688 255.140625 708.886719 234.28125 714.027344 223.09375 C 718.5625 213.421875 730.046875 205.5625 741.234375 205.5625 Z M 741.234375 205.5625 " fill-opacity="1" fill-rule="nonzero"/><path fill="#e2a379" d="M 745.164062 253.324219 C 745.164062 253.324219 743.953125 238.210938 751.8125 236.699219 C 758.464844 235.488281 760.882812 235.792969 750 267.835938 C 749.699219 268.136719 745.164062 267.53125 745.164062 253.324219 Z M 745.164062 253.324219 " fill-opacity="1" fill-rule="nonzero"/><path fill="#b3233b" d="M 633.011719 656.890625 C 631.800781 619.710938 662.636719 610.339844 682.890625 570.738281 C 685.308594 565.902344 708.28125 552.296875 720.375 551.996094 C 733.675781 551.691406 747.28125 553.808594 757.558594 564.691406 C 765.417969 573.15625 781.136719 599.457031 768.136719 668.984375 C 765.113281 695.886719 741.535156 806.832031 762.394531 826.179688 C 762.394531 826.179688 725.515625 854.292969 701.332031 860.339844 C 677.144531 866.382812 655.078125 879.382812 655.078125 879.382812 C 629.6875 819.832031 652.054688 720.980469 646.613281 683.796875 C 646.3125 684.097656 633.3125 667.472656 633.011719 656.890625 Z M 633.011719 656.890625 " fill-opacity="1" fill-rule="nonzero"/><path fill="#e2a379" d="M 693.46875 555.320312 C 693.46875 555.320312 703.144531 528.414062 709.191406 504.230469 L 749.699219 501.511719 C 741.839844 525.695312 747.582031 558.34375 747.582031 558.34375 C 709.792969 554.414062 694.074219 567.414062 684.097656 571.34375 Z M 693.46875 555.320312 " fill-opacity="1" fill-rule="nonzero"/><path fill="#f4b382" d="M 722.1875 419.890625 C 726.117188 401.148438 742.746094 396.3125 752.722656 394.5 C 784.160156 388.753906 798.367188 400.542969 813.484375 418.078125 C 833.738281 441.355469 780.230469 503.023438 768.136719 509.976562 C 736.699219 527.8125 694.378906 500 680.773438 485.1875 C 665.960938 468.863281 675.332031 468.257812 682.285156 462.816406 C 682.585938 462.515625 682.890625 461.003906 682.890625 461.003906 C 685.007812 458.886719 688.332031 456.46875 690.144531 452.238281 C 690.144531 452.238281 692.867188 451.027344 693.773438 450.121094 C 694.679688 449.515625 694.980469 449.214844 694.378906 448.003906 C 693.167969 444.679688 691.960938 441.957031 691.960938 440.144531 C 692.867188 434.402344 720.375 428.65625 722.1875 419.890625 Z M 722.1875 419.890625 " fill-opacity="1" fill-rule="nonzero"/><path fill="#d6876b" d="M 695.890625 464.933594 C 695.890625 464.933594 693.46875 464.027344 686.820312 456.769531 C 686.515625 455.5625 685.914062 452.839844 689.238281 452.539062 C 691.65625 452.238281 691.957031 458.886719 695.890625 464.933594 Z M 695.890625 464.933594 " fill-opacity="1" fill-rule="nonzero"/><path fill="#cc785e" d="M 695.890625 464.933594 C 695.890625 464.933594 690.75 466.746094 682.890625 461.304688 C 681.984375 460.097656 682.285156 458.585938 682.585938 458.28125 C 684.097656 455.5625 686.820312 456.769531 686.820312 456.769531 C 693.46875 464.328125 695.890625 464.933594 695.890625 464.933594 Z M 695.890625 464.933594 " fill-opacity="1" fill-rule="nonzero"/><path fill="#602f0f" d="M 818.921875 416.566406 C 843.410156 444.980469 835.550781 517.835938 753.929688 521.160156 C 748.488281 521.464844 739.417969 518.742188 738.511719 504.230469 C 737.90625 493.953125 740.328125 484.28125 740.328125 484.28125 C 741.234375 481.558594 741.839844 478.234375 743.046875 474.910156 C 744.257812 471.28125 759.671875 461.003906 757.558594 457.679688 C 737.90625 426.238281 742.441406 401.449219 749.699219 395.101562 C 770.253906 383.011719 792.625 386.335938 818.921875 416.566406 Z M 818.921875 416.566406 " fill-opacity="1" fill-rule="nonzero"/><path fill="#f4b382" d="M 752.417969 481.863281 C 736.09375 488.511719 730.957031 483.675781 725.210938 475.816406 L 748.488281 463.121094 L 759.671875 460.097656 C 765.417969 467.957031 768.742188 475.210938 752.417969 481.863281 Z M 752.417969 481.863281 " fill-opacity="1" fill-rule="nonzero"/><path fill="#4c230c" d="M 814.390625 498.1875 C 825.875 500 836.757812 484.886719 838.875 464.933594 C 840.992188 444.980469 833.738281 427.144531 822.25 425.332031 C 810.761719 423.519531 803.808594 436.515625 801.691406 456.46875 C 799.578125 476.722656 802.902344 496.371094 814.390625 498.1875 Z M 814.390625 498.1875 " fill-opacity="1" fill-rule="nonzero"/><path fill="#602f0f" d="M 752.117188 457.375 C 754.835938 455.863281 756.953125 454.050781 758.464844 452.539062 C 760.882812 450.421875 762.09375 448.609375 762.09375 448.609375 L 766.324219 459.492188 C 765.113281 460.703125 763.90625 461.609375 762.695312 462.816406 C 762.695312 462.816406 762.09375 461.609375 761.488281 459.792969 L 761.488281 460.097656 C 758.765625 460.703125 754.535156 461.609375 749.394531 464.027344 C 749.09375 463.722656 743.953125 462.515625 752.117188 457.375 Z M 752.117188 457.375 " fill-opacity="1" fill-rule="nonzero"/><path fill="#602f0f" d="M 819.226562 502.117188 C 831.316406 503.929688 842.804688 487.605469 845.222656 465.539062 C 847.640625 443.46875 839.78125 424.125 827.992188 422.308594 C 815.902344 420.496094 808.644531 434.703125 806.226562 456.46875 C 803.808594 478.535156 807.132812 500.300781 819.226562 502.117188 Z M 819.226562 502.117188 " fill-opacity="1" fill-rule="nonzero"/><path fill="#4c230c" d="M 840.386719 475.515625 C 841.597656 475.816406 843.410156 470.375 844.015625 463.722656 C 844.617188 457.074219 844.316406 451.328125 842.804688 451.328125 C 841.597656 451.027344 840.386719 455.5625 839.480469 462.210938 C 838.875 468.863281 838.875 475.515625 840.386719 475.515625 Z M 840.386719 475.515625 " fill-opacity="1" fill-rule="nonzero"/><path fill="#f4b382" d="M 757.859375 190.449219 C 769.347656 190.449219 763.300781 238.210938 766.324219 252.71875 L 758.464844 269.953125 C 765.417969 374.847656 746.675781 420.496094 746.675781 420.496094 C 753.628906 483.070312 761.183594 603.6875 756.953125 627.265625 C 753.023438 650.847656 704.65625 648.125 702.839844 623.941406 C 701.027344 600.058594 701.933594 578.597656 702.238281 554.714844 C 702.238281 530.835938 705.863281 441.65625 707.980469 420.796875 C 708.28125 418.078125 732.769531 269.953125 732.769531 269.953125 C 732.769531 269.953125 732.464844 263.90625 729.140625 253.929688 C 724.304688 240.023438 725.515625 219.164062 730.652344 207.980469 C 735.1875 198.308594 746.675781 190.449219 757.859375 190.449219 Z M 757.859375 190.449219 " fill-opacity="1" fill-rule="nonzero"/><path fill="#f4b382" d="M 761.789062 238.210938 C 761.789062 238.210938 760.582031 223.09375 768.441406 221.585938 C 775.089844 220.375 777.507812 220.675781 766.625 252.71875 C 766.324219 253.023438 761.789062 252.417969 761.789062 238.210938 Z M 761.789062 238.210938 " fill-opacity="1" fill-rule="nonzero"/></g></g></svg>