<svg xmlns="http://www.w3.org/2000/svg" xmlns:xlink="http://www.w3.org/1999/xlink" width="2000" zoomAndPan="magnify" viewBox="0 0 1500 1499.999933" height="2000" preserveAspectRatio="xMidYMid meet" version="1.0"><defs><clipPath id="7b18fc4ed5"><rect x="0" width="1500" y="0" height="1500"/></clipPath></defs><g transform="matrix(1, 0, 0, 1, 0, 0.000000000000112861)"><g clip-path="url(#7b18fc4ed5)"><path fill="#ffefd6" d="M 1500 750 C 1500 335.851562 1164.148438 0 750 0 C 335.851562 0 0 335.851562 0 750 C 0 1164.148438 335.851562 1500 750 1500 C 1164.148438 1500 1500 1164.148438 1500 750 Z M 1500 750 " fill-opacity="1" fill-rule="nonzero"/><path fill="#3d3c3c" d="M 672.007812 631.800781 L 668.378906 693.167969 C 668.378906 693.167969 610.339844 713.421875 588.269531 713.421875 C 566.203125 713.421875 508.160156 693.167969 508.160156 693.167969 L 504.535156 631.800781 Z M 672.007812 631.800781 " fill-opacity="1" fill-rule="nonzero"/><path fill="#f4b382" d="M 622.128906 1219.46875 C 610.035156 1223.398438 596.128906 1223.09375 593.410156 1219.46875 C 588.269531 1212.210938 598.246094 1189.238281 594.921875 1178.054688 C 592.804688 1170.796875 596.433594 1148.730469 596.433594 1143.894531 C 595.222656 1118.804688 589.78125 1070.132812 588.875 1039.601562 C 588.574219 1032.648438 588.574219 1025.394531 588.875 1017.835938 C 589.480469 987.90625 650.242188 1008.160156 648.730469 1018.742188 C 643.589844 1061.96875 629.082031 1137.242188 625.453125 1152.660156 C 625.453125 1152.660156 630.894531 1185.003906 632.707031 1196.191406 C 633.617188 1203.445312 636.335938 1214.933594 622.128906 1219.46875 Z M 622.128906 1219.46875 " fill-opacity="1" fill-rule="nonzero"/><path fill="#3d3c3c" d="M 598.851562 920.191406 C 592.804688 954.65625 589.175781 987.605469 588.574219 1017.53125 C 598.550781 1014.207031 639.660156 1015.417969 648.429688 1018.441406 C 649.636719 1007.558594 650.542969 998.789062 651.148438 993.347656 C 652.960938 966.140625 654.472656 923.820312 654.472656 923.820312 C 657.496094 899.636719 681.074219 730.957031 679.261719 694.074219 C 677.449219 657.195312 671.703125 631.5 672.007812 631.5 L 632.40625 631.5 C 623.640625 655.683594 594.015625 649.03125 588.875 673.214844 C 589.480469 726.722656 593.410156 824.96875 595.527344 849.457031 C 597.339844 874.246094 598.851562 920.191406 598.851562 920.191406 Z M 598.851562 920.191406 " fill-opacity="1" fill-rule="nonzero"/><path fill="#f4b382" d="M 554.414062 1219.46875 C 566.503906 1223.398438 580.410156 1223.09375 583.132812 1219.46875 C 588.269531 1212.210938 578.296875 1189.238281 581.621094 1178.054688 C 583.738281 1170.796875 580.109375 1148.730469 580.109375 1143.894531 C 581.316406 1118.804688 586.757812 1070.132812 587.667969 1039.601562 C 587.96875 1032.648438 587.96875 1025.394531 587.667969 1017.835938 C 587.0625 987.90625 526.300781 1008.160156 527.8125 1018.742188 C 532.949219 1061.96875 547.460938 1137.242188 551.089844 1152.660156 C 551.089844 1152.660156 545.648438 1185.003906 543.832031 1196.191406 C 542.925781 1203.445312 540.207031 1214.933594 554.414062 1219.46875 Z M 554.414062 1219.46875 " fill-opacity="1" fill-rule="nonzero"/><path fill="#3d3c3c" d="M 577.386719 920.191406 C 583.433594 954.65625 587.0625 987.605469 587.667969 1017.53125 C 577.691406 1014.207031 536.578125 1015.417969 527.8125 1018.441406 C 526.601562 1007.558594 525.695312 998.789062 525.089844 993.347656 C 523.277344 966.140625 521.765625 923.820312 521.765625 923.820312 C 518.742188 899.636719 495.164062 730.957031 496.976562 694.074219 C 498.789062 657.195312 504.535156 631.5 504.535156 631.5 L 543.832031 631.5 C 552.601562 655.683594 582.226562 649.03125 587.363281 673.214844 C 586.757812 726.722656 582.828125 824.96875 580.714844 849.457031 C 578.898438 874.246094 577.386719 920.191406 577.386719 920.191406 Z M 577.386719 920.191406 " fill-opacity="1" fill-rule="nonzero"/><path fill="#eaa97d" d="M 1123.941406 381.800781 L 1123.035156 387.242188 L 1094.015625 397.824219 C 1091.597656 405.984375 1085.851562 414.753906 1077.085938 418.378906 C 1070.132812 421.101562 1049.878906 414.753906 1049.878906 414.753906 C 1019.953125 437.121094 953.144531 487 937.425781 496.675781 C 917.472656 509.070312 806.53125 555.320312 780.835938 560.460938 C 757.558594 564.992188 689.84375 551.996094 689.84375 551.996094 C 711.304688 541.113281 732.769531 530.835938 754.835938 521.765625 C 776.90625 512.695312 799.273438 508.765625 822.25 502.117188 C 831.316406 499.394531 901.449219 471.886719 912.03125 467.050781 C 935.609375 455.863281 1015.417969 409.914062 1041.71875 400.242188 L 1045.648438 398.730469 Z M 1123.941406 381.800781 " fill-opacity="1" fill-rule="nonzero"/><path fill="#eaa97d" d="M 1123.941406 379.683594 L 1120.917969 375.152344 L 1090.085938 377.265625 C 1084.339844 370.917969 1075.574219 365.175781 1066.203125 365.476562 C 1058.644531 365.78125 1042.925781 379.988281 1042.925781 379.988281 C 1006.347656 371.824219 925.03125 353.992188 906.890625 351.269531 C 883.617188 348.246094 763.601562 351.269531 737.90625 357.316406 C 714.632812 362.757812 658.402344 402.359375 658.402344 402.359375 C 682.285156 403.566406 706.167969 403.871094 730.046875 403.265625 C 753.929688 402.660156 775.996094 396.917969 799.578125 393.589844 C 808.949219 392.078125 883.917969 388.753906 895.707031 389.058594 C 922.007812 389.660156 1013.300781 398.730469 1041.414062 396.917969 L 1045.34375 396.613281 L 1091.292969 386.636719 Z M 1123.941406 379.683594 " fill-opacity="1" fill-rule="nonzero"/><path fill="#b3233b" d="M 660.820312 398.429688 C 693.46875 385.429688 761.488281 399.941406 761.488281 399.941406 C 766.023438 412.9375 769.648438 426.542969 771.765625 437.121094 L 779.625 474.304688 C 781.742188 484.886719 784.160156 498.488281 785.367188 512.394531 C 785.367188 512.394531 729.445312 552.601562 694.378906 555.019531 C 681.984375 555.925781 674.425781 576.480469 672.613281 603.6875 C 671.101562 623.035156 530.230469 608.828125 513.300781 604.292969 C 513.300781 604.292969 561.972656 438.027344 660.820312 398.429688 Z M 660.820312 398.429688 " fill-opacity="1" fill-rule="nonzero"/><path fill="#e2a379" d="M 804.414062 423.519531 L 814.992188 473.398438 C 789.902344 470.675781 780.53125 480.046875 780.53125 480.046875 C 780.53125 480.046875 764.8125 481.863281 759.976562 458.886719 C 755.140625 435.914062 770.253906 431.378906 770.253906 431.378906 C 770.253906 431.378906 782.347656 436.515625 804.414062 423.519531 Z M 804.414062 423.519531 " fill-opacity="1" fill-rule="nonzero"/><path fill="#f4b382" d="M 867.292969 382.40625 C 926.542969 369.710938 945.285156 389.660156 951.332031 418.078125 C 957.375 446.492188 948.609375 472.1875 889.359375 484.886719 C 869.40625 489.117188 852.78125 489.117188 839.480469 486.09375 C 810.15625 480.046875 796.554688 461.609375 794.4375 451.632812 C 792.320312 441.65625 797.160156 419.285156 821.34375 401.753906 C 832.226562 393.894531 847.339844 386.941406 867.292969 382.40625 Z M 867.292969 382.40625 " fill-opacity="1" fill-rule="nonzero"/><path fill="#d6876b" d="M 815.597656 432.285156 C 815.597656 432.285156 813.484375 439.539062 815.296875 447.398438 C 817.109375 455.261719 821.644531 461.003906 821.644531 461.003906 C 822.550781 460.703125 826.785156 454.957031 826.480469 451.933594 C 826.480469 449.820312 823.457031 445.585938 823.457031 445.585938 C 823.457031 445.585938 824.363281 440.449219 823.761719 438.632812 C 822.855469 435.308594 815.597656 432.285156 815.597656 432.285156 Z M 815.597656 432.285156 " fill-opacity="1" fill-rule="nonzero"/><path fill="#cc785e" d="M 815.597656 432.285156 C 815.597656 432.285156 811.0625 440.144531 812.878906 448.003906 C 814.691406 455.863281 821.945312 461.304688 821.945312 461.304688 C 821.945312 461.304688 823.457031 459.492188 822.25 450.726562 C 821.945312 449.214844 820.433594 447.703125 820.132812 446.492188 C 819.832031 445.285156 820.738281 443.46875 820.433594 442.261719 C 818.015625 433.496094 815.597656 432.285156 815.597656 432.285156 Z M 815.597656 432.285156 " fill-opacity="1" fill-rule="nonzero"/><path fill="#4c230c" d="M 930.105469 422.65625 C 930.292969 423.539062 930.511719 424.410156 930.757812 425.273438 C 931.003906 426.136719 931.28125 426.988281 931.582031 427.828125 C 931.882812 428.667969 932.214844 429.492188 932.566406 430.296875 C 932.921875 431.101562 933.304688 431.886719 933.707031 432.652344 C 934.113281 433.414062 934.539062 434.15625 934.988281 434.871094 C 935.4375 435.589844 935.90625 436.277344 936.398438 436.9375 C 936.886719 437.597656 937.398438 438.230469 937.925781 438.828125 C 938.449219 439.429688 938.992188 439.992188 939.550781 440.527344 C 940.109375 441.058594 940.679688 441.554688 941.265625 442.011719 C 941.847656 442.472656 942.441406 442.894531 943.046875 443.273438 C 943.648438 443.65625 944.261719 444 944.878906 444.300781 C 945.496094 444.601562 946.121094 444.863281 946.746094 445.082031 C 947.375 445.300781 948 445.476562 948.632812 445.609375 C 949.261719 445.742188 949.886719 445.828125 950.511719 445.875 C 951.140625 445.921875 951.757812 445.921875 952.375 445.878906 C 952.992188 445.839844 953.597656 445.753906 954.199219 445.625 C 954.800781 445.496094 955.390625 445.324219 955.96875 445.109375 C 956.546875 444.894531 957.113281 444.640625 957.664062 444.339844 C 958.214844 444.042969 958.75 443.703125 959.269531 443.324219 C 959.789062 442.945312 960.292969 442.53125 960.773438 442.074219 C 961.253906 441.617188 961.71875 441.125 962.15625 440.597656 C 962.597656 440.066406 963.015625 439.503906 963.410156 438.910156 C 963.804688 438.3125 964.171875 437.683594 964.515625 437.027344 C 964.859375 436.367188 965.179688 435.679688 965.46875 434.96875 C 965.757812 434.253906 966.023438 433.515625 966.257812 432.753906 C 966.492188 431.988281 966.695312 431.207031 966.875 430.402344 C 967.050781 429.597656 967.195312 428.777344 967.3125 427.941406 C 967.429688 427.101562 967.515625 426.253906 967.570312 425.390625 C 967.625 424.527344 967.648438 423.652344 967.644531 422.773438 C 967.636719 421.894531 967.597656 421.007812 967.53125 420.121094 C 967.460938 419.230469 967.363281 418.339844 967.234375 417.453125 C 967.105469 416.5625 966.945312 415.675781 966.757812 414.796875 C 966.566406 413.914062 966.351562 413.042969 966.101562 412.179688 C 965.855469 411.316406 965.582031 410.464844 965.28125 409.625 C 964.976562 408.785156 964.648438 407.964844 964.292969 407.15625 C 963.9375 406.351562 963.558594 405.566406 963.15625 404.800781 C 962.75 404.039062 962.324219 403.296875 961.875 402.582031 C 961.425781 401.863281 960.953125 401.175781 960.464844 400.515625 C 959.972656 399.855469 959.464844 399.222656 958.9375 398.625 C 958.410156 398.023438 957.867188 397.460938 957.308594 396.925781 C 956.753906 396.394531 956.179688 395.898438 955.597656 395.441406 C 955.015625 394.980469 954.421875 394.558594 953.816406 394.179688 C 953.210938 393.796875 952.601562 393.453125 951.980469 393.152344 C 951.363281 392.851562 950.742188 392.589844 950.113281 392.371094 C 949.488281 392.152344 948.859375 391.976562 948.230469 391.84375 C 947.601562 391.714844 946.972656 391.625 946.347656 391.578125 C 945.722656 391.53125 945.101562 391.53125 944.484375 391.574219 C 943.871094 391.613281 943.261719 391.699219 942.664062 391.828125 C 942.0625 391.957031 941.472656 392.128906 940.894531 392.34375 C 940.316406 392.558594 939.75 392.8125 939.199219 393.113281 C 938.644531 393.410156 938.109375 393.75 937.589844 394.128906 C 937.070312 394.507812 936.570312 394.925781 936.089844 395.378906 C 935.605469 395.835938 935.144531 396.328125 934.703125 396.855469 C 934.265625 397.386719 933.847656 397.949219 933.453125 398.546875 C 933.058594 399.140625 932.691406 399.769531 932.34375 400.425781 C 932 401.085938 931.683594 401.773438 931.394531 402.484375 C 931.101562 403.199219 930.839844 403.9375 930.605469 404.699219 C 930.371094 405.464844 930.164062 406.246094 929.988281 407.050781 C 929.8125 407.855469 929.664062 408.675781 929.550781 409.511719 C 929.433594 410.351562 929.347656 411.199219 929.292969 412.0625 C 929.238281 412.925781 929.210938 413.800781 929.21875 414.679688 C 929.226562 415.558594 929.261719 416.445312 929.332031 417.332031 C 929.398438 418.222656 929.5 419.113281 929.628906 420 C 929.757812 420.890625 929.914062 421.777344 930.105469 422.65625 Z M 930.105469 422.65625 " fill-opacity="1" fill-rule="nonzero"/><path fill="#602f0f" d="M 864.570312 381.195312 C 923.820312 368.5 943.46875 381.195312 951.332031 418.078125 C 959.191406 454.957031 946.492188 474.605469 887.242188 487.304688 C 887.242188 487.304688 887.242188 404.777344 909.007812 400.242188 C 887.546875 405.078125 864.570312 381.195312 864.570312 381.195312 Z M 864.570312 381.195312 " fill-opacity="1" fill-rule="nonzero"/><path fill="#f4b382" d="M 869.40625 494.558594 C 852.78125 495.164062 851.269531 492.140625 850.96875 487 L 887.242188 484.582031 C 887.546875 489.722656 886.335938 493.652344 869.40625 494.558594 Z M 869.40625 494.558594 " fill-opacity="1" fill-rule="nonzero"/><path fill="#f4b382" d="M 865.78125 383.917969 L 831.621094 396.613281 C 829.804688 391.777344 829.804688 388.148438 845.222656 382.105469 C 860.941406 375.753906 863.964844 379.082031 865.78125 383.917969 Z M 865.78125 383.917969 " fill-opacity="1" fill-rule="nonzero"/><path fill="#602f0f" d="M 883.3125 482.164062 C 885.128906 482.164062 886.636719 481.863281 887.847656 481.558594 C 889.660156 480.957031 890.871094 480.652344 890.871094 480.652344 L 889.964844 487.304688 C 889.058594 487.605469 888.148438 487.605469 887.242188 487.90625 C 887.242188 487.90625 887.242188 487.304688 887.546875 486.09375 C 887.546875 486.09375 887.546875 486.09375 887.546875 486.398438 C 886.035156 485.792969 883.617188 485.1875 880.289062 484.886719 C 879.988281 484.28125 877.871094 482.464844 883.3125 482.164062 Z M 883.3125 482.164062 " fill-opacity="1" fill-rule="nonzero"/><path fill="#602f0f" d="M 867.894531 386.636719 C 866.6875 386.941406 865.175781 387.242188 863.363281 387.847656 C 858.222656 389.964844 859.429688 387.242188 859.429688 387.242188 C 862.453125 385.429688 864.269531 384.21875 865.476562 383.011719 C 864.871094 382.105469 864.570312 381.5 864.570312 381.5 C 865.476562 381.195312 866.382812 381.195312 867.292969 380.894531 L 870.917969 386.335938 C 870.917969 386.035156 869.710938 386.035156 867.894531 386.636719 " fill-opacity="1" fill-rule="nonzero"/><path fill="#b3233b" d="M 672.007812 631.800781 L 504.535156 631.800781 C 508.765625 616.082031 510.582031 611.546875 513 604.292969 L 672.308594 603.6875 C 672.007812 613.363281 670.796875 620.617188 672.007812 631.800781 Z M 672.007812 631.800781 " fill-opacity="1" fill-rule="nonzero"/></g></g></svg>