<svg xmlns="http://www.w3.org/2000/svg" xmlns:xlink="http://www.w3.org/1999/xlink" width="2000" zoomAndPan="magnify" viewBox="0 0 1500 1499.999933" height="2000" preserveAspectRatio="xMidYMid meet" version="1.0"><defs><clipPath id="ab051518b7"><rect x="0" width="1500" y="0" height="1500"/></clipPath></defs><g transform="matrix(1, 0, 0, 1, 0, 0.000000000000112861)"><g clip-path="url(#ab051518b7)"><path fill="#ffefd6" d="M 1500 750 C 1500 335.851562 1164.148438 0 750 0 C 335.851562 0 0 335.851562 0 750 C 0 1164.148438 335.851562 1500 750 1500 C 1164.148438 1500 1500 1164.148438 1500 750 Z M 1500 750 " fill-opacity="1" fill-rule="nonzero"/><path fill="#e2a379" d="M 198.609375 545.042969 C 201.027344 533.855469 276.300781 561.367188 276.300781 561.367188 C 380.289062 577.085938 427.449219 596.128906 427.449219 596.128906 C 490.023438 602.78125 603.082031 630.289062 625.152344 639.359375 C 647.21875 648.429688 634.21875 694.980469 610.339844 691.65625 C 586.457031 688.332031 565.902344 682.585938 542.625 677.449219 C 519.347656 672.308594 439.539062 640.871094 419.589844 634.21875 C 416.867188 633.3125 271.160156 586.457031 271.160156 586.457031 C 271.160156 586.457031 265.113281 585.246094 254.535156 586.457031 C 240.023438 588.574219 196.191406 556.226562 198.609375 545.042969 Z M 198.609375 545.042969 " fill-opacity="1" fill-rule="nonzero"/><path fill="#3d3c3c" d="M 843.710938 714.632812 C 850.058594 711.304688 868.199219 690.445312 898.429688 682.890625 C 916.566406 678.355469 939.539062 676.542969 960.398438 675.9375 C 990.023438 675.03125 991.234375 794.136719 971.28125 802.902344 C 938.9375 817.109375 873.640625 821.039062 853.6875 821.34375 C 840.085938 821.34375 821.34375 759.671875 821.34375 759.671875 C 821.34375 759.671875 837.363281 717.957031 843.710938 714.632812 Z M 843.710938 714.632812 " fill-opacity="1" fill-rule="nonzero"/><path fill="#3d3c3c" d="M 1107.011719 605.804688 C 1107.011719 605.804688 1173.820312 586.15625 1179.867188 618.5 C 1186.214844 652.054688 1043.832031 756.953125 1013 778.71875 C 981.863281 800.179688 968.863281 807.4375 896.613281 829.203125 C 886.035156 812.574219 891.171875 806.832031 892.683594 752.117188 C 894.195312 684.097656 1107.011719 605.804688 1107.011719 605.804688 Z M 1107.011719 605.804688 " fill-opacity="1" fill-rule="nonzero"/><path fill="#e2a379" d="M 924.726562 284.160156 C 915.660156 292.625 945.585938 336.15625 946.492188 345.828125 C 947.097656 350.664062 943.167969 357.617188 948.003906 366.988281 C 954.351562 379.382812 967.652344 380.894531 969.769531 385.125 C 980.046875 408.101562 1006.347656 455.5625 1019.347656 483.375 C 1022.371094 489.722656 1025.695312 496.371094 1029.019531 502.71875 C 1043.226562 529.324219 1088.269531 483.976562 1082.226562 474.910156 C 1058.042969 438.632812 998.1875 370.617188 988.210938 358.523438 C 988.210938 358.523438 963.722656 316.808594 957.074219 307.738281 C 952.839844 301.691406 933.796875 275.695312 924.726562 284.160156 Z M 924.726562 284.160156 " fill-opacity="1" fill-rule="nonzero"/><path fill="#3d3c3c" d="M 1084.339844 594.617188 C 1072.25 581.015625 1042.925781 529.019531 1028.71875 502.417969 C 1038.996094 500.90625 1075.273438 481.257812 1081.921875 474.605469 C 1087.96875 483.675781 1185.914062 590.992188 1180.167969 623.335938 C 1176.238281 646.917969 1142.683594 636.941406 1115.175781 622.429688 C 1115.476562 622.429688 1096.433594 608.222656 1084.339844 594.617188 Z M 1084.339844 594.617188 " fill-opacity="1" fill-rule="nonzero"/><path fill="#f4b382" d="M 860.640625 1277.507812 C 872.734375 1274.789062 918.378906 1277.507812 922.914062 1277.207031 C 933.796875 1276.902344 944.378906 1270.859375 942.261719 1260.582031 C 940.75 1252.71875 936.820312 1245.769531 937.425781 1240.929688 C 939.84375 1215.839844 947.097656 1140.566406 949.515625 1110.339844 C 950.121094 1103.386719 950.421875 1096.128906 950.726562 1088.574219 C 951.632812 1058.644531 889.964844 1075.574219 890.871094 1086.457031 C 893.894531 1129.988281 905.078125 1232.769531 908.101562 1248.488281 C 908.101562 1248.488281 833.433594 1252.117188 834.644531 1263.300781 C 835.246094 1270.253906 848.550781 1280.53125 860.640625 1277.507812 Z M 860.640625 1277.507812 " fill-opacity="1" fill-rule="nonzero"/><path fill="#3d3c3c" d="M 942.261719 990.628906 C 946.492188 1025.394531 951.632812 1058.34375 950.726562 1088.574219 C 940.75 1084.945312 899.941406 1083.734375 890.871094 1086.457031 C 890.265625 1075.574219 876.359375 991.835938 876.359375 991.835938 C 873.035156 965.234375 846.128906 809.25 853.082031 760.582031 C 854.292969 748.1875 856.710938 737 859.128906 727.933594 C 863.964844 710.097656 962.210938 720.375 966.144531 744.859375 C 962.816406 798.066406 954.65625 879.683594 950.121094 918.984375 C 946.796875 946.191406 942.261719 990.628906 942.261719 990.628906 Z M 942.261719 990.628906 " fill-opacity="1" fill-rule="nonzero"/><path fill="#b3233b" d="M 612.757812 714.027344 C 600.058594 680.472656 610.035156 657.195312 619.710938 611.546875 C 621.523438 606.410156 640.871094 590.085938 652.660156 588.269531 C 665.960938 586.15625 680.167969 587.667969 689.539062 597.640625 C 698.308594 604.898438 711.609375 622.429688 741.535156 685.308594 C 750 702.839844 812.273438 722.1875 843.710938 714.328125 C 843.710938 714.328125 866.6875 739.417969 866.6875 773.277344 C 866.6875 798.367188 853.6875 821.039062 853.6875 821.039062 C 720.375 818.921875 671.101562 794.4375 639.058594 737.90625 C 639.058594 738.210938 618.804688 730.351562 612.757812 714.027344 Z M 612.757812 714.027344 " fill-opacity="1" fill-rule="nonzero"/><path fill="#e2a379" d="M 613.664062 613.664062 C 613.664062 613.664062 607.011719 587.667969 592.804688 567.714844 L 626.058594 544.136719 C 631.800781 568.921875 661.425781 587.96875 661.425781 587.96875 C 639.058594 646.3125 617.894531 633.617188 615.78125 631.5 Z M 613.664062 613.664062 " fill-opacity="1" fill-rule="nonzero"/><path fill="#f4b382" d="M 560.15625 512.394531 C 549.578125 496.371094 557.4375 481.257812 563.484375 472.492188 C 581.621094 445.890625 599.757812 444.378906 623.035156 445.585938 C 653.566406 447.398438 660.519531 529.019531 656.890625 542.320312 C 647.824219 577.386719 597.945312 588.269531 577.992188 587.667969 C 555.925781 587.0625 561.972656 579.804688 563.179688 571.039062 C 563.179688 570.738281 562.273438 569.226562 562.273438 569.226562 C 562.273438 566.203125 562.878906 561.972656 561.0625 558.042969 C 561.0625 558.042969 561.972656 555.320312 562.273438 553.808594 C 562.273438 552.902344 562.273438 552.296875 561.367188 551.691406 C 558.34375 550.484375 555.320312 549.273438 554.113281 547.761719 C 549.878906 543.53125 564.992188 519.953125 560.15625 512.394531 Z M 560.15625 512.394531 " fill-opacity="1" fill-rule="nonzero"/><path fill="#d6876b" d="M 573.761719 562.878906 C 573.761719 562.878906 571.644531 564.085938 561.667969 563.480469 C 560.460938 562.878906 558.34375 561.367188 560.460938 558.644531 C 561.667969 556.53125 566.503906 561.367188 573.761719 562.878906 Z M 573.761719 562.878906 " fill-opacity="1" fill-rule="nonzero"/><path fill="#cc785e" d="M 573.761719 562.878906 C 573.761719 562.878906 571.34375 567.714844 561.972656 569.527344 C 560.761719 569.226562 559.855469 568.015625 559.550781 567.714844 C 558.644531 564.691406 561.367188 563.480469 561.367188 563.480469 C 571.34375 563.785156 573.761719 562.878906 573.761719 562.878906 Z M 573.761719 562.878906 " fill-opacity="1" fill-rule="nonzero"/><path fill="#602f0f" d="M 625.152344 440.75 C 662.636719 443.167969 709.191406 500 654.171875 560.460938 C 650.542969 564.390625 642.382812 568.921875 631.195312 559.550781 C 623.335938 552.902344 618.199219 544.4375 618.199219 544.4375 C 616.6875 542.019531 615.175781 538.996094 613.363281 535.972656 C 611.546875 532.648438 615.175781 514.207031 611.246094 513.601562 C 574.96875 505.742188 560.460938 485.1875 561.0625 475.515625 C 567.414062 452.238281 585.246094 438.332031 625.152344 440.75 Z M 625.152344 440.75 " fill-opacity="1" fill-rule="nonzero"/><path fill="#f4b382" d="M 625.453125 534.160156 C 618.804688 550.484375 611.851562 550.785156 602.175781 549.273438 L 609.433594 523.882812 L 615.175781 513.90625 C 624.546875 515.113281 632.105469 517.835938 625.453125 534.160156 Z M 625.453125 534.160156 " fill-opacity="1" fill-rule="nonzero"/><path fill="#4c230c" d="M 680.167969 501.210938 C 689.238281 494.257812 686.515625 476.117188 673.519531 460.398438 C 660.820312 444.679688 642.988281 437.726562 633.617188 444.679688 C 624.546875 451.632812 628.777344 465.539062 641.476562 481.257812 C 654.472656 496.675781 671.101562 508.160156 680.167969 501.210938 Z M 680.167969 501.210938 " fill-opacity="1" fill-rule="nonzero"/><path fill="#602f0f" d="M 607.617188 517.230469 C 608.222656 514.207031 608.523438 511.488281 608.523438 509.371094 C 608.523438 506.046875 608.222656 504.230469 608.222656 504.230469 L 618.804688 508.765625 C 618.804688 510.277344 618.5 512.09375 618.5 513.601562 C 618.5 513.601562 617.292969 513.300781 615.476562 512.394531 L 615.78125 512.394531 C 614.269531 514.8125 612.152344 518.441406 610.035156 523.882812 C 610.035156 523.882812 605.5 526.601562 607.617188 517.230469 Z M 607.617188 517.230469 " fill-opacity="1" fill-rule="nonzero"/><path fill="#602f0f" d="M 686.515625 500.605469 C 696.191406 493.347656 692.5625 473.398438 678.65625 456.46875 C 664.753906 439.238281 645.40625 431.378906 635.730469 438.632812 C 626.058594 445.890625 630.894531 461.003906 645.101562 478.234375 C 659.007812 495.164062 676.84375 507.859375 686.515625 500.605469 Z M 686.515625 500.605469 " fill-opacity="1" fill-rule="nonzero"/><path fill="#4c230c" d="M 682.285156 467.050781 C 683.496094 466.144531 680.773438 461.304688 676.542969 456.167969 C 672.308594 451.027344 667.773438 447.398438 666.867188 448.308594 C 665.660156 449.214844 668.078125 453.144531 672.613281 458.28125 C 676.84375 463.121094 681.378906 467.957031 682.285156 467.050781 Z M 682.285156 467.050781 " fill-opacity="1" fill-rule="nonzero"/><path fill="#f4b382" d="M 1035.972656 350.664062 C 1043.53125 359.128906 1004.535156 387.242188 996.070312 399.335938 L 978.234375 405.078125 C 905.984375 481.257812 864.875 509.371094 864.875 509.371094 C 823.761719 556.832031 739.117188 631.195312 718.863281 644.195312 C 706.773438 652.359375 667.472656 602.480469 680.167969 590.386719 C 701.632812 573.761719 711.003906 571.945312 730.351562 556.832031 C 747.882812 540.808594 821.039062 493.347656 837.96875 480.957031 C 840.386719 479.140625 960.398438 386.035156 960.398438 386.035156 C 960.398438 386.035156 964.632812 381.800781 969.769531 372.429688 C 976.722656 359.429688 992.746094 346.128906 1004.535156 342.199219 C 1014.8125 339.175781 1028.414062 342.503906 1035.972656 350.664062 Z M 1035.972656 350.664062 " fill-opacity="1" fill-rule="nonzero"/><path fill="#f4b382" d="M 1003.628906 385.730469 C 1003.628906 385.730469 1013.90625 374.546875 1020.253906 379.382812 C 1025.695312 383.3125 1027.207031 385.429688 996.070312 399.335938 C 996.070312 399.335938 993.347656 395.707031 1003.628906 385.730469 Z M 1003.628906 385.730469 " fill-opacity="1" fill-rule="nonzero"/></g></g></svg>