<svg xmlns="http://www.w3.org/2000/svg" xmlns:xlink="http://www.w3.org/1999/xlink" width="2000" zoomAndPan="magnify" viewBox="0 0 1500 1499.999933" height="2000" preserveAspectRatio="xMidYMid meet" version="1.0"><defs><clipPath id="884458658e"><rect x="0" width="1500" y="0" height="1500"/></clipPath></defs><g transform="matrix(1, 0, 0, 1, 0, 0.000000000000112861)"><g clip-path="url(#884458658e)"><path fill="#ffefd6" d="M 1500 750 C 1500 335.851562 1164.148438 0 750 0 C 335.851562 0 0 335.851562 0 750 C 0 1164.148438 335.851562 1500 750 1500 C 1164.148438 1500 1500 1164.148438 1500 750 Z M 1500 750 " fill-opacity="1" fill-rule="nonzero"/><path fill="#d89d75" d="M 639.660156 708.28125 C 646.613281 694.074219 659.914062 671.402344 659.914062 671.402344 C 669.890625 653.265625 674.125 634.824219 683.191406 618.5 C 697.398438 590.992188 701.332031 582.527344 703.75 574.96875 C 707.980469 562.878906 716.445312 546.554688 728.535156 543.226562 C 747.28125 538.089844 773.578125 549.273438 769.648438 570.132812 C 763.90625 600.664062 701.933594 690.144531 680.167969 710.703125 C 671.101562 719.164062 663.542969 723.699219 660.21875 724.003906 C 656.589844 724.304688 648.730469 720.980469 642.382812 712.515625 C 641.171875 711.003906 640.570312 709.792969 639.660156 708.28125 Z M 639.660156 708.28125 " fill-opacity="1" fill-rule="nonzero"/><path fill="#d89d75" d="M 560.15625 763.601562 C 584.339844 749.09375 596.433594 729.746094 614.570312 712.816406 C 627.570312 700.726562 647.824219 689.238281 650.847656 687.726562 C 652.660156 689.539062 654.171875 691.050781 655.382812 692.5625 C 663.84375 701.632812 664.449219 709.191406 664.753906 712.816406 C 664.753906 712.816406 665.054688 724.304688 656.589844 730.652344 C 639.964844 743.046875 564.992188 788.390625 564.992188 788.390625 Z M 560.15625 763.601562 " fill-opacity="1" fill-rule="nonzero"/><path fill="#d89d75" d="M 560.15625 763.601562 C 560.761719 763.601562 562.574219 766.929688 564.992188 788.390625 C 564.992188 788.390625 558.949219 789.902344 549.878906 795.34375 C 537.183594 802.902344 516.625 805.925781 504.535156 802.902344 C 494.257812 800.484375 484.28125 790.808594 482.164062 779.625 C 480.046875 768.441406 528.113281 764.8125 541.414062 758.765625 Z M 560.15625 763.601562 " fill-opacity="1" fill-rule="nonzero"/><path fill="#d89d75" d="M 528.113281 766.625 C 528.113281 766.625 513.601562 770.859375 510.582031 763.300781 C 508.164062 756.953125 507.859375 754.535156 541.71875 759.070312 C 541.414062 759.070312 542.019531 763.601562 528.113281 766.625 Z M 528.113281 766.625 " fill-opacity="1" fill-rule="nonzero"/><path fill="#e2a379" d="M 488.511719 1093.410156 C 500.90625 1092.804688 549.878906 1093.710938 554.414062 1094.316406 C 565.296875 1095.828125 576.785156 1091.597656 576.480469 1081.316406 C 576.179688 1073.457031 577.085938 1065.597656 574.96875 1061.0625 C 562.574219 1032.949219 561.0625 967.050781 553.507812 921.703125 C 551.691406 911.425781 478.234375 901.449219 481.558594 912.03125 C 501.210938 971.886719 536.578125 1041.414062 544.4375 1063.480469 C 544.4375 1063.480469 479.746094 1066.203125 479.140625 1077.691406 C 478.839844 1084.039062 476.117188 1094.015625 488.511719 1093.410156 Z M 488.511719 1093.410156 " fill-opacity="1" fill-rule="nonzero"/><path fill="#333333" d="M 534.765625 864.269531 C 539.902344 877.265625 544.738281 883.617188 553.507812 921.402344 C 544.136719 916.867188 490.929688 909.613281 481.558594 911.730469 C 477.027344 893.589844 449.820312 811.972656 472.492188 788.390625 C 496.371094 763.601562 714.933594 818.015625 720.074219 810.15625 C 720.074219 810.15625 830.109375 884.523438 784.460938 915.355469 C 728.234375 952.839844 534.765625 864.269531 534.765625 864.269531 Z M 534.765625 864.269531 " fill-opacity="1" fill-rule="nonzero"/><path fill="#f4b382" d="M 1275.996094 1082.828125 C 1274.789062 1070.433594 1222.1875 1067.414062 1214.027344 1062.273438 C 1210.097656 1059.855469 1206.769531 1052.601562 1196.492188 1050.785156 C 1182.890625 1048.367188 1173.519531 1058.042969 1168.683594 1056.832031 C 1144.195312 1051.089844 1076.179688 1042.925781 1046.25 1036.277344 C 1039.296875 1034.765625 1032.347656 1033.253906 1025.089844 1032.042969 C 995.464844 1026.90625 1003.929688 1090.386719 1014.8125 1091.292969 C 1058.34375 1094.316406 1162.9375 1088.269531 1178.65625 1087.667969 C 1178.65625 1087.667969 1226.421875 1093.710938 1237.90625 1094.015625 C 1244.859375 1094.015625 1276.90625 1095.222656 1275.996094 1082.828125 Z M 1275.996094 1082.828125 " fill-opacity="1" fill-rule="nonzero"/><path fill="#3d3c3c" d="M 928.960938 1024.484375 C 964.027344 1024.789062 996.976562 1027.507812 1026.601562 1032.648438 C 1021.464844 1042.019531 1014.8125 1082.226562 1016.324219 1091.597656 C 1005.441406 1090.992188 921.101562 1090.085938 921.101562 1090.085938 C 897.519531 1089.78125 753.324219 948.910156 694.378906 878.476562 C 689.84375 873.335938 682.285156 860.339844 675.03125 846.433594 C 675.03125 846.433594 769.042969 789.296875 779.625 791.414062 C 797.160156 800.484375 814.390625 818.320312 821.34375 840.992188 C 825.273438 853.386719 824.363281 875.753906 828.597656 882.105469 C 867.894531 938.027344 928.960938 1024.484375 928.960938 1024.484375 Z M 928.960938 1024.484375 " fill-opacity="1" fill-rule="nonzero"/><path fill="#b3233b" d="M 652.054688 623.035156 C 650.847656 585.851562 681.679688 576.480469 701.933594 536.878906 C 704.351562 532.042969 727.328125 518.441406 739.417969 518.136719 C 752.71875 517.835938 766.324219 519.953125 776.601562 530.835938 C 784.460938 539.296875 800.179688 565.597656 787.183594 635.125 C 784.160156 662.03125 760.582031 772.972656 781.4375 792.320312 C 781.4375 792.320312 744.558594 820.433594 720.375 826.480469 C 696.191406 832.527344 674.125 845.527344 674.125 845.527344 C 648.730469 785.972656 671.101562 687.121094 665.660156 649.9375 C 665.355469 650.242188 652.359375 633.3125 652.054688 623.035156 Z M 652.054688 623.035156 " fill-opacity="1" fill-rule="nonzero"/><path fill="#e2a379" d="M 712.210938 521.464844 C 712.210938 521.464844 721.886719 494.558594 727.933594 470.375 L 768.441406 467.652344 C 760.582031 491.839844 766.324219 524.484375 766.324219 524.484375 C 728.535156 520.554688 712.816406 533.554688 702.839844 537.484375 Z M 712.210938 521.464844 " fill-opacity="1" fill-rule="nonzero"/><path fill="#f4b382" d="M 696.492188 412.9375 C 689.238281 395.101562 700.121094 381.800781 707.375 374.546875 C 730.351562 352.175781 748.488281 353.992188 770.859375 360.035156 C 800.484375 367.894531 791.113281 449.214844 785.066406 461.609375 C 769.347656 494.257812 718.257812 494.859375 698.910156 490.328125 C 677.449219 485.1875 684.703125 479.445312 687.726562 470.980469 C 687.726562 470.675781 687.121094 469.164062 687.121094 469.164062 C 687.726562 466.144531 689.238281 462.210938 688.027344 457.980469 C 688.027344 457.980469 689.539062 455.5625 689.84375 454.050781 C 690.144531 453.144531 690.144531 452.539062 689.238281 451.933594 C 686.515625 450.121094 683.796875 448.308594 682.890625 446.796875 C 680.167969 441.65625 699.820312 421.402344 696.492188 412.9375 Z M 696.492188 412.9375 " fill-opacity="1" fill-rule="nonzero"/><path fill="#d6876b" d="M 699.820312 464.933594 C 699.820312 464.933594 697.398438 465.539062 687.726562 463.121094 C 686.820312 462.210938 685.007812 460.398438 687.425781 458.28125 C 689.238281 456.769531 693.167969 462.515625 699.820312 464.933594 Z M 699.820312 464.933594 " fill-opacity="1" fill-rule="nonzero"/><path fill="#cc785e" d="M 699.820312 464.933594 C 699.820312 464.933594 696.492188 469.46875 687.121094 469.164062 C 685.914062 468.5625 685.308594 467.351562 685.007812 466.746094 C 684.703125 463.421875 687.726562 463.121094 687.726562 463.121094 C 697.398438 465.839844 699.820312 464.933594 699.820312 464.933594 Z M 699.820312 464.933594 " fill-opacity="1" fill-rule="nonzero"/><path fill="#602f0f" d="M 774.183594 355.5 C 810.460938 365.175781 844.921875 430.167969 779.324219 478.535156 C 775.089844 481.863281 766.023438 484.582031 756.953125 473.398438 C 750.605469 465.234375 747.28125 455.863281 747.28125 455.863281 C 746.371094 453.144531 745.164062 450.121094 744.257812 446.796875 C 743.046875 443.167969 750.300781 425.9375 746.675781 424.425781 C 712.515625 409.3125 702.539062 386.636719 704.957031 377.265625 C 715.234375 355.5 735.792969 345.527344 774.183594 355.5 Z M 774.183594 355.5 " fill-opacity="1" fill-rule="nonzero"/><path fill="#f4b382" d="M 756.347656 447.097656 C 746.675781 461.609375 739.722656 460.703125 730.351562 457.375 L 742.441406 433.796875 L 750 425.03125 C 759.070312 428.355469 766.023438 432.285156 756.347656 447.097656 Z M 756.347656 447.097656 " fill-opacity="1" fill-rule="nonzero"/><path fill="#4c230c" d="M 816.503906 425.632812 C 826.785156 420.496094 827.691406 402.054688 818.015625 384.21875 C 808.644531 366.382812 792.320312 355.804688 782.042969 360.941406 C 771.765625 366.082031 773.277344 380.59375 782.648438 398.429688 C 792.019531 416.261719 806.226562 430.773438 816.503906 425.632812 Z M 816.503906 425.632812 " fill-opacity="1" fill-rule="nonzero"/><path fill="#602f0f" d="M 742.140625 427.144531 C 743.347656 424.425781 744.257812 421.703125 744.558594 419.589844 C 745.164062 416.566406 745.464844 414.449219 745.464844 414.449219 L 755.140625 421.101562 C 754.835938 422.613281 754.230469 424.125 753.929688 425.632812 C 753.929688 425.632812 753.023438 425.03125 751.210938 423.820312 C 751.210938 423.820312 751.511719 423.820312 751.511719 424.125 C 749.394531 426.238281 746.675781 429.261719 743.652344 434.097656 C 743.046875 434.097656 738.210938 435.914062 742.140625 427.144531 Z M 742.140625 427.144531 " fill-opacity="1" fill-rule="nonzero"/><path fill="#602f0f" d="M 822.550781 426.238281 C 833.433594 421.101562 834.039062 400.847656 823.457031 381.195312 C 813.179688 361.546875 795.648438 350.058594 784.765625 355.5 C 773.882812 360.640625 775.695312 376.664062 785.972656 396.007812 C 796.554688 415.660156 811.667969 431.378906 822.550781 426.238281 Z M 822.550781 426.238281 " fill-opacity="1" fill-rule="nonzero"/><path fill="#4c230c" d="M 825.273438 392.382812 C 826.480469 391.777344 824.96875 386.335938 821.644531 380.59375 C 818.320312 374.546875 814.992188 370.3125 813.785156 370.917969 C 812.574219 371.523438 814.085938 375.753906 817.414062 381.800781 C 820.433594 387.847656 824.0625 392.988281 825.273438 392.382812 Z M 825.273438 392.382812 " fill-opacity="1" fill-rule="nonzero"/><path fill="#f4b382" d="M 676.238281 742.746094 C 678.960938 727.328125 685.914062 702.539062 685.914062 702.539062 C 690.75 682.285156 695.585938 655.078125 699.820312 636.941406 C 706.167969 606.710938 707.679688 597.339844 707.980469 589.480469 C 708.585938 576.785156 712.515625 558.644531 723.398438 552.296875 C 740.023438 542.320312 768.441406 545.949219 769.953125 567.109375 C 772.371094 597.945312 730.957031 708.585938 715.539062 734.28125 C 709.191406 744.859375 703.144531 751.210938 699.820312 752.417969 C 696.492188 753.628906 688.027344 752.71875 679.566406 746.371094 C 678.65625 744.859375 677.449219 743.953125 676.238281 742.746094 Z M 676.238281 742.746094 " fill-opacity="1" fill-rule="nonzero"/><path fill="#f4b382" d="M 564.691406 774.484375 C 626.664062 750.605469 643.894531 738.210938 658.707031 727.933594 C 673.214844 717.652344 693.167969 710.097656 695.890625 708.585938 C 697.703125 710.398438 699.214844 711.910156 700.421875 713.421875 C 708.886719 722.492188 709.492188 730.046875 709.792969 733.675781 C 709.792969 733.675781 710.097656 745.164062 701.632812 751.511719 C 685.007812 763.90625 568.015625 799.878906 568.015625 799.878906 Z M 564.691406 774.484375 " fill-opacity="1" fill-rule="nonzero"/><path fill="#f4b382" d="M 564.691406 774.484375 C 565.296875 774.484375 567.109375 777.8125 569.527344 799.273438 C 569.527344 799.273438 563.484375 800.785156 554.414062 806.226562 C 541.71875 813.785156 521.160156 816.808594 509.070312 813.785156 C 498.789062 811.367188 488.816406 801.691406 486.699219 790.507812 C 484.582031 779.324219 532.648438 775.695312 545.949219 769.648438 Z M 564.691406 774.484375 " fill-opacity="1" fill-rule="nonzero"/><path fill="#f4b382" d="M 532.648438 777.207031 C 532.648438 777.207031 518.136719 781.4375 515.113281 773.882812 C 512.695312 767.53125 512.394531 765.113281 546.25 769.648438 C 545.949219 769.648438 546.25 774.183594 532.648438 777.207031 Z M 532.648438 777.207031 " fill-opacity="1" fill-rule="nonzero"/></g></g></svg>