<svg xmlns="http://www.w3.org/2000/svg" xmlns:xlink="http://www.w3.org/1999/xlink" width="2000" zoomAndPan="magnify" viewBox="0 0 1500 1499.999933" height="2000" preserveAspectRatio="xMidYMid meet" version="1.0"><defs><clipPath id="5f4920ebe7"><rect x="0" width="1500" y="0" height="1500"/></clipPath></defs><g transform="matrix(1, 0, 0, 1, 0, 0.000000000000112861)"><g clip-path="url(#5f4920ebe7)"><path fill="#ffefd6" d="M 1500 750 C 1500 335.851562 1164.148438 0 750 0 C 335.851562 0 0 335.851562 0 750 C 0 1164.148438 335.851562 1500 750 1500 C 1164.148438 1500 1500 1164.148438 1500 750 Z M 1500 750 " fill-opacity="1" fill-rule="nonzero"/><path fill="#3d3c3c" d="M 833.738281 710.398438 L 830.109375 771.765625 C 830.109375 771.765625 779.019531 792.019531 756.953125 792.019531 C 734.886719 792.019531 669.890625 771.765625 669.890625 771.765625 L 666.261719 710.398438 Z M 833.738281 710.398438 " fill-opacity="1" fill-rule="nonzero"/><path fill="#f4b382" d="M 1240.023438 405.683594 C 1240.023438 394.5 1192.261719 400.542969 1177.75 397.519531 L 1160.820312 405.378906 C 1055.925781 399.03125 1006.953125 406.890625 1006.953125 406.890625 C 944.378906 400.242188 831.921875 404.171875 808.34375 408.402344 C 794.136719 410.820312 807.132812 473.09375 824.96875 473.09375 C 852.175781 470.375 986.09375 448.003906 1006.953125 445.585938 C 1009.671875 445.285156 1161.125 431.074219 1161.125 431.074219 C 1161.125 431.074219 1167.171875 431.074219 1177.449219 434.703125 C 1191.355469 439.539062 1212.210938 438.332031 1223.398438 432.890625 C 1232.464844 428.65625 1240.023438 417.171875 1240.023438 405.683594 Z M 1240.023438 405.683594 " fill-opacity="1" fill-rule="nonzero"/><path fill="#f4b382" d="M 1192.5625 404.777344 C 1192.5625 404.777344 1207.679688 405.984375 1209.191406 398.125 C 1210.398438 391.476562 1210.097656 389.058594 1178.054688 400.242188 C 1178.054688 400.242188 1178.65625 404.777344 1192.5625 404.777344 Z M 1192.5625 404.777344 " fill-opacity="1" fill-rule="nonzero"/><path fill="#f4b382" d="M 259.976562 405.683594 C 259.976562 394.5 307.738281 400.542969 322.25 397.519531 L 339.179688 405.378906 C 444.074219 399.03125 493.046875 406.890625 493.046875 406.890625 C 555.621094 400.242188 668.078125 404.171875 691.65625 408.402344 C 705.863281 410.820312 692.867188 473.09375 675.03125 473.09375 C 647.824219 470.375 513.90625 448.003906 493.046875 445.585938 C 490.328125 445.285156 338.875 431.074219 338.875 431.074219 C 338.875 431.074219 332.828125 431.074219 322.550781 434.703125 C 308.644531 439.539062 287.789062 438.332031 276.601562 432.890625 C 267.535156 428.65625 259.976562 417.171875 259.976562 405.683594 Z M 259.976562 405.683594 " fill-opacity="1" fill-rule="nonzero"/><path fill="#f4b382" d="M 307.4375 404.777344 C 307.4375 404.777344 292.320312 405.984375 290.808594 398.125 C 289.601562 391.476562 289.902344 389.058594 321.945312 400.242188 C 321.945312 400.242188 321.34375 404.777344 307.4375 404.777344 Z M 307.4375 404.777344 " fill-opacity="1" fill-rule="nonzero"/><path fill="#b3233b" d="M 669.890625 507.253906 C 664.148438 472.492188 692.5625 409.3125 692.5625 409.3125 C 706.167969 407.496094 720.375 406.890625 730.957031 406.890625 L 769.042969 406.890625 C 779.925781 406.890625 793.832031 407.496094 807.4375 409.3125 C 807.4375 409.3125 835.851562 472.792969 830.109375 507.253906 C 824.667969 539.601562 815.597656 587.0625 833.738281 710.703125 L 666.261719 710.703125 C 684.402344 587.0625 675.332031 539.601562 669.890625 507.253906 Z M 669.890625 507.253906 " fill-opacity="1" fill-rule="nonzero"/><path fill="#e2a379" d="M 724.605469 371.824219 L 775.695312 371.824219 C 767.835938 396.007812 775.089844 406.890625 775.089844 406.890625 C 775.089844 406.890625 773.578125 422.613281 750 422.613281 C 726.722656 422.613281 725.210938 406.890625 725.210938 406.890625 C 725.210938 406.890625 732.464844 396.007812 724.605469 371.824219 Z M 724.605469 371.824219 " fill-opacity="1" fill-rule="nonzero"/><path fill="#f4b382" d="M 697.703125 301.691406 C 697.703125 240.929688 721.28125 227.023438 750 227.023438 C 779.019531 227.023438 802.296875 240.929688 802.296875 301.691406 C 802.296875 322.25 798.671875 338.269531 793.230469 350.664062 C 781.136719 377.871094 760.277344 387.546875 750 387.546875 C 739.722656 387.546875 718.863281 377.871094 706.773438 350.664062 C 701.332031 338.269531 697.703125 322.25 697.703125 301.691406 Z M 697.703125 301.691406 " fill-opacity="1" fill-rule="nonzero"/><path fill="#d6876b" d="M 735.1875 362.757812 C 735.1875 362.757812 741.839844 366.082031 750 366.082031 C 758.160156 366.082031 764.8125 362.757812 764.8125 362.757812 C 764.8125 361.851562 759.976562 356.410156 756.953125 356.105469 C 755.140625 355.804688 750 357.617188 750 357.617188 C 750 357.617188 745.164062 355.804688 743.046875 356.105469 C 740.023438 356.410156 735.1875 362.757812 735.1875 362.757812 Z M 735.1875 362.757812 " fill-opacity="1" fill-rule="nonzero"/><path fill="#cc785e" d="M 735.1875 362.757812 C 735.1875 362.757812 741.839844 368.804688 750 368.804688 C 758.160156 368.804688 764.8125 362.757812 764.8125 362.757812 C 764.8125 362.757812 763.300781 360.941406 754.535156 360.339844 C 753.023438 360.339844 751.210938 361.546875 750 361.546875 C 748.789062 361.546875 747.28125 360.339844 746.070312 360.339844 C 737 360.941406 735.1875 362.757812 735.1875 362.757812 Z M 735.1875 362.757812 " fill-opacity="1" fill-rule="nonzero"/><path fill="#4c230c" d="M 722.492188 230.046875 C 722.492188 230.664062 722.535156 231.273438 722.625 231.886719 C 722.710938 232.496094 722.84375 233.101562 723.019531 233.703125 C 723.195312 234.308594 723.414062 234.902344 723.675781 235.488281 C 723.9375 236.078125 724.238281 236.652344 724.585938 237.222656 C 724.929688 237.789062 725.316406 238.34375 725.738281 238.882812 C 726.164062 239.425781 726.625 239.949219 727.128906 240.460938 C 727.628906 240.972656 728.164062 241.464844 728.734375 241.9375 C 729.308594 242.414062 729.910156 242.867188 730.546875 243.300781 C 731.183594 243.734375 731.851562 244.148438 732.546875 244.535156 C 733.246094 244.925781 733.96875 245.292969 734.71875 245.632812 C 735.464844 245.972656 736.238281 246.289062 737.03125 246.578125 C 737.828125 246.867188 738.640625 247.128906 739.472656 247.363281 C 740.304688 247.597656 741.152344 247.804688 742.015625 247.984375 C 742.875 248.160156 743.75 248.3125 744.632812 248.429688 C 745.515625 248.550781 746.40625 248.640625 747.304688 248.699219 C 748.199219 248.761719 749.097656 248.789062 750 248.789062 C 750.902344 248.789062 751.800781 248.761719 752.695312 248.699219 C 753.59375 248.640625 754.484375 248.550781 755.367188 248.429688 C 756.25 248.3125 757.125 248.160156 757.984375 247.984375 C 758.847656 247.804688 759.695312 247.597656 760.527344 247.363281 C 761.359375 247.128906 762.171875 246.867188 762.96875 246.578125 C 763.761719 246.289062 764.535156 245.972656 765.285156 245.632812 C 766.03125 245.292969 766.753906 244.925781 767.453125 244.535156 C 768.148438 244.148438 768.816406 243.734375 769.453125 243.300781 C 770.089844 242.867188 770.691406 242.414062 771.265625 241.9375 C 771.835938 241.464844 772.371094 240.972656 772.871094 240.460938 C 773.375 239.949219 773.835938 239.425781 774.261719 238.882812 C 774.6875 238.34375 775.070312 237.789062 775.414062 237.222656 C 775.761719 236.652344 776.0625 236.078125 776.324219 235.488281 C 776.585938 234.902344 776.804688 234.308594 776.980469 233.703125 C 777.15625 233.101562 777.289062 232.496094 777.375 231.886719 C 777.464844 231.273438 777.507812 230.664062 777.507812 230.046875 C 777.507812 229.433594 777.464844 228.820312 777.375 228.210938 C 777.289062 227.601562 777.15625 226.992188 776.980469 226.390625 C 776.804688 225.789062 776.585938 225.195312 776.324219 224.609375 C 776.0625 224.019531 775.761719 223.441406 775.414062 222.875 C 775.070312 222.308594 774.6875 221.753906 774.261719 221.214844 C 773.835938 220.671875 773.375 220.144531 772.871094 219.636719 C 772.371094 219.125 771.835938 218.632812 771.265625 218.160156 C 770.691406 217.683594 770.089844 217.230469 769.453125 216.796875 C 768.816406 216.363281 768.148438 215.949219 767.453125 215.558594 C 766.753906 215.171875 766.03125 214.804688 765.285156 214.464844 C 764.535156 214.125 763.761719 213.808594 762.96875 213.519531 C 762.171875 213.230469 761.359375 212.96875 760.527344 212.734375 C 759.695312 212.496094 758.847656 212.292969 757.984375 212.113281 C 757.125 211.933594 756.25 211.785156 755.367188 211.667969 C 754.484375 211.546875 753.59375 211.457031 752.695312 211.394531 C 751.800781 211.335938 750.902344 211.304688 750 211.304688 C 749.097656 211.304688 748.199219 211.335938 747.304688 211.394531 C 746.40625 211.457031 745.515625 211.546875 744.632812 211.667969 C 743.75 211.785156 742.875 211.933594 742.015625 212.113281 C 741.152344 212.292969 740.304688 212.496094 739.472656 212.734375 C 738.640625 212.96875 737.828125 213.230469 737.03125 213.519531 C 736.238281 213.808594 735.464844 214.125 734.714844 214.464844 C 733.96875 214.804688 733.246094 215.171875 732.546875 215.558594 C 731.851562 215.949219 731.183594 216.363281 730.546875 216.796875 C 729.910156 217.230469 729.308594 217.683594 728.734375 218.160156 C 728.164062 218.632812 727.628906 219.125 727.128906 219.636719 C 726.625 220.144531 726.164062 220.671875 725.738281 221.214844 C 725.3125 221.753906 724.929688 222.308594 724.585938 222.875 C 724.238281 223.441406 723.9375 224.019531 723.675781 224.609375 C 723.414062 225.195312 723.195312 225.789062 723.019531 226.390625 C 722.84375 226.992188 722.710938 227.601562 722.625 228.210938 C 722.535156 228.820312 722.492188 229.433594 722.492188 230.046875 Z M 722.492188 230.046875 " fill-opacity="1" fill-rule="nonzero"/><path fill="#602f0f" d="M 695.585938 304.109375 C 695.585938 243.347656 712.210938 227.023438 750 227.023438 C 787.789062 227.023438 804.414062 243.652344 804.414062 304.109375 C 804.414062 304.109375 723.699219 286.578125 723.699219 264.511719 C 723.699219 286.878906 695.585938 304.109375 695.585938 304.109375 Z M 695.585938 304.109375 " fill-opacity="1" fill-rule="nonzero"/><path fill="#f4b382" d="M 807.4375 323.15625 C 804.714844 339.78125 801.089844 340.386719 795.949219 339.480469 L 801.390625 303.507812 C 806.53125 304.414062 810.460938 306.53125 807.4375 323.15625 Z M 807.4375 323.15625 " fill-opacity="1" fill-rule="nonzero"/><path fill="#f4b382" d="M 698.609375 303.507812 L 704.050781 339.480469 C 698.910156 340.386719 695.585938 339.480469 692.5625 323.15625 C 689.539062 306.53125 693.46875 304.414062 698.609375 303.507812 Z M 698.609375 303.507812 " fill-opacity="1" fill-rule="nonzero"/><path fill="#602f0f" d="M 798.367188 306.832031 C 798.667969 305.019531 798.667969 303.507812 798.667969 301.996094 C 798.667969 300.179688 798.367188 298.972656 798.367188 298.972656 L 804.414062 301.390625 C 804.414062 302.296875 804.414062 303.203125 804.414062 304.109375 C 804.414062 304.109375 803.808594 303.808594 802.601562 303.507812 C 802.601562 303.507812 802.601562 303.507812 802.902344 303.507812 C 801.996094 305.019531 801.089844 307.132812 799.878906 310.460938 C 799.878906 310.460938 797.460938 312.273438 798.367188 306.832031 Z M 798.367188 306.832031 " fill-opacity="1" fill-rule="nonzero"/><path fill="#602f0f" d="M 701.632812 302.296875 C 701.632812 303.507812 701.632812 305.320312 701.933594 306.832031 C 702.839844 312.273438 700.421875 310.460938 700.421875 310.460938 C 699.515625 307.132812 698.308594 305.019531 697.398438 303.507812 C 696.191406 303.808594 695.585938 304.109375 695.585938 304.109375 C 695.585938 303.203125 695.585938 302.296875 695.585938 301.390625 L 701.632812 298.972656 C 701.933594 298.972656 701.632812 300.179688 701.632812 302.296875 " fill-opacity="1" fill-rule="nonzero"/><path fill="#f4b382" d="M 687.121094 1288.390625 C 699.214844 1285.367188 727.933594 1262.089844 731.863281 1260.277344 C 738.511719 1256.953125 748.488281 1253.929688 748.488281 1243.347656 C 748.488281 1235.792969 747.28125 1228.535156 747.882812 1223.699219 C 749.699219 1198.609375 760.277344 1150.242188 762.394531 1119.710938 C 762.695312 1112.757812 763 1105.5 763.300781 1097.945312 C 763.601562 1068.015625 702.238281 1086.15625 703.445312 1097.039062 C 707.074219 1140.566406 715.539062 1216.140625 718.863281 1231.558594 C 718.863281 1231.558594 674.125 1263 675.636719 1274.484375 C 675.9375 1281.136719 675.03125 1291.414062 687.121094 1288.390625 Z M 687.121094 1288.390625 " fill-opacity="1" fill-rule="nonzero"/><path fill="#3d3c3c" d="M 755.742188 1000 C 760.882812 1034.460938 763 1067.714844 762.695312 1097.640625 C 752.71875 1094.015625 711.910156 1093.710938 702.839844 1096.734375 C 701.933594 1085.851562 701.332031 1077.085938 701.027344 1071.644531 C 700.121094 1044.4375 700.121094 1002.117188 700.121094 1002.117188 C 698.003906 977.628906 653.265625 808.644531 656.589844 771.765625 C 659.914062 734.886719 666.265625 710.703125 666.265625 710.703125 L 705.5625 710.703125 C 713.421875 734.886719 756.046875 729.445312 760.277344 753.929688 C 757.859375 807.4375 754.230469 887.847656 756.046875 928.65625 C 757.253906 952.839844 755.742188 1000 755.742188 1000 Z M 755.742188 1000 " fill-opacity="1" fill-rule="nonzero"/><path fill="#3d3c3c" d="M 842.199219 798.972656 C 872.429688 803.203125 896.007812 804.714844 928.960938 807.4375 C 934.097656 816.503906 938.027344 857.011719 936.515625 866.382812 C 954.957031 869.710938 1047.160156 893.589844 1047.160156 843.710938 C 1047.160156 770.554688 826.179688 716.140625 833.734375 710.398438 C 833.734375 710.398438 740.023438 758.765625 787.789062 785.972656 C 787.789062 785.972656 811.972656 795.042969 842.199219 798.972656 Z M 842.199219 798.972656 " fill-opacity="1" fill-rule="nonzero"/><path fill="#282828" d="M 969.164062 814.992188 C 969.164062 814.992188 939.238281 806.53125 912.332031 800.484375 C 912.636719 800.785156 931.074219 797.761719 969.164062 814.992188 Z M 969.164062 814.992188 " fill-opacity="1" fill-rule="nonzero"/><path fill="#e2a379" d="M 754.835938 872.128906 C 755.441406 859.734375 754.230469 810.761719 753.324219 806.226562 C 751.8125 795.34375 756.046875 786.878906 766.324219 784.160156 C 774.183594 782.042969 782.042969 783.554688 786.578125 785.671875 C 814.992188 797.761719 883.917969 792.019531 928.960938 804.714844 C 935.914062 806.832031 939.84375 867.59375 936.515625 866.382812 C 876.964844 845.828125 806.832031 823.457031 784.765625 815.902344 C 784.765625 815.902344 782.648438 880.59375 771.160156 881.195312 C 764.207031 881.800781 754.230469 884.523438 754.835938 872.128906 Z M 754.835938 872.128906 " fill-opacity="1" fill-rule="nonzero"/></g></g></svg>